<svg width="54" height="54" viewBox="0 0 54 54" fill="none" xmlns="http://www.w3.org/2000/svg">
<path d="M50.625 27C50.625 31.6726 49.2394 36.2402 46.6435 40.1253C44.0475 44.0105 40.3578 47.0385 36.0409 48.8267C31.724 50.6148 26.9738 51.0826 22.391 50.1711C17.8082 49.2595 13.5986 47.0094 10.2946 43.7054C6.99059 40.4014 4.74052 36.1918 3.82895 31.609C2.91737 27.0262 3.38522 22.276 5.17334 17.9591C6.96146 13.6422 9.98954 9.95248 13.8747 7.35653C17.7598 4.76058 22.3274 3.375 27 3.375C33.2657 3.375 39.2748 5.86406 43.7054 10.2946C48.1359 14.7252 50.625 20.7343 50.625 27ZM40.5 25.3125H19.9969L29.4131 15.8507L27 13.5L13.5 27L27 40.5L29.4131 38.0919L19.9969 28.6875H40.5V25.3125Z" fill="url(#paint0_linear_1_176)"/>
<defs>
<linearGradient id="paint0_linear_1_176" x1="50.625" y1="3.375" x2="-1.67301" y2="9.84948" gradientUnits="userSpaceOnUse">
<stop stop-color="#8E7102"/>
<stop offset="1" stop-color="#C3A42F"/>
</linearGradient>
</defs>
</svg>
