<svg width="54" height="54" viewBox="0 0 54 54" fill="none" xmlns="http://www.w3.org/2000/svg">
<path d="M3.375 27C3.375 31.6726 4.76058 36.2402 7.35653 40.1253C9.95248 44.0105 13.6422 47.0385 17.9591 48.8267C22.276 50.6148 27.0262 51.0826 31.609 50.1711C36.1918 49.2595 40.4014 47.0094 43.7054 43.7054C47.0094 40.4014 49.2595 36.1918 50.1711 31.609C51.0826 27.0262 50.6148 22.276 48.8267 17.9591C47.0385 13.6422 44.0105 9.95248 40.1253 7.35653C36.2402 4.76058 31.6726 3.375 27 3.375C20.7343 3.375 14.7252 5.86406 10.2946 10.2946C5.86406 14.7252 3.375 20.7343 3.375 27ZM13.5 25.3125H34.0031L24.5869 15.8507L27 13.5L40.5 27L27 40.5L24.5869 38.0919L34.0031 28.6875H13.5V25.3125Z" fill="url(#paint0_linear_1_173)"/>
<defs>
<linearGradient id="paint0_linear_1_173" x1="3.375" y1="3.375" x2="55.673" y2="9.84948" gradientUnits="userSpaceOnUse">
<stop stop-color="#8E7102"/>
<stop offset="1" stop-color="#C3A42F"/>
</linearGradient>
</defs>
</svg>
